<svg width="628" height="215" viewBox="0 0 628 215" fill="none" xmlns="http://www.w3.org/2000/svg">
<path d="M303.4 125.6C303.3 126.4 303.3 127.3 303.2 128.4H248.6C249.7 133.5 251.9 137.3 255.3 139.9C258.7 142.5 262.8 143.8 267.8 143.8C271.5 143.8 274.8 143.2 277.8 141.9C280.7 140.6 283.8 138.6 286.9 135.7L299.6 147C295.9 151.6 291.4 155.2 286.1 157.8C280.8 160.4 274.6 161.7 267.5 161.7C261.6 161.7 256.2 160.7 251.2 158.8C246.2 156.8 241.8 154.1 238.2 150.5C234.5 146.9 231.7 142.6 229.6 137.7C227.5 132.8 226.5 127.3 226.5 121.2V120.9C226.5 115.3 227.5 110.1 229.4 105.1C231.3 100.1 234 95.8 237.4 92.1C240.8 88.4 244.9 85.5 249.6 83.3C254.3 81.2 259.6 80.1 265.3 80.1C271.8 80.1 277.5 81.3 282.3 83.6C287.1 85.9 291.1 89.1 294.2 93C297.4 97 299.7 101.5 301.2 106.6C302.7 111.7 303.5 117.1 303.5 122.6V122.9C303.5 123.9 303.5 124.8 303.4 125.6ZM276.6 102.4C273.8 99.3 270 97.8 265.3 97.8C260.6 97.8 256.8 99.3 254 102.3C251.1 105.3 249.2 109.4 248.4 114.5H281.9C281.2 109.5 279.4 105.5 276.6 102.4Z" fill="#303030"/>
<path d="M366.2 103.2C358.8 103.2 352.9 105.4 348.7 109.9C344.5 114.4 342.3 121.4 342.3 130.8V159.8H320V81.3H342.3V97.1C344.5 91.7 347.6 87.4 351.5 84.2C355.4 81 360.7 79.5 367.3 79.8V103.1H366.2V103.2Z" fill="#303030"/>
<path d="M430.3 159.9V148.7C429 150.4 427.6 152 426.1 153.5C424.6 155 422.9 156.4 421 157.6C419.1 158.8 417.1 159.7 414.9 160.4C412.7 161.1 410.1 161.4 407.3 161.4C398.8 161.4 392.2 158.8 387.6 153.6C383 148.4 380.6 141.3 380.6 132.2V81.4H402.9V125.1C402.9 130.4 404.1 134.3 406.4 137C408.7 139.7 412.1 141 416.4 141C420.7 141 424.1 139.7 426.6 137C429.1 134.3 430.3 130.4 430.3 125.1V81.4H452.6V159.9H430.3V159.9Z" fill="#303030"/>
<path d="M528.6 157.6C523.7 160.3 517.4 161.6 509.6 161.6C503.7 161.6 498.3 160.5 493.3 158.4C488.3 156.3 484 153.3 480.3 149.7C476.7 146 473.9 141.7 471.8 136.8C469.7 131.9 468.7 126.6 468.7 121.1V120.8C468.7 115.2 469.7 110 471.8 105C473.9 100 476.7 95.7 480.3 92C483.9 88.3 488.2 85.4 493.3 83.2C498.3 81.1 503.9 80 509.9 80C517.3 80 523.5 81.2 528.4 83.5C533.3 85.8 537.6 89.1 541.3 93.2L527.7 107.8C525.2 105.2 522.5 103.1 519.9 101.5C517.2 99.9 513.9 99.2 509.9 99.2C507.1 99.2 504.5 99.8 502.2 100.9C499.9 102 497.9 103.6 496.2 105.5C494.5 107.5 493.2 109.7 492.2 112.3C491.3 114.9 490.8 117.6 490.8 120.6V120.9C490.8 123.9 491.3 126.8 492.2 129.4C493.1 132 494.5 134.3 496.2 136.3C498 138.3 500.1 139.8 502.5 140.9C504.9 142 507.7 142.6 510.7 142.6C514.4 142.6 517.7 141.8 520.4 140.3C523.2 138.8 525.9 136.8 528.7 134.2L541.7 147.4C537.8 151.5 533.5 154.9 528.6 157.6Z" fill="#303030"/>
<path d="M605.7 159.9V116.2C605.7 110.9 604.5 107 602.2 104.3C599.9 101.6 596.5 100.3 592.2 100.3C587.9 100.3 584.5 101.6 582 104.3C579.5 107 578.3 110.9 578.3 116.2V159.9H556V53H578.3V92.6C579.6 90.9 581 89.3 582.5 87.8C584 86.3 585.7 84.9 587.6 83.7C589.5 82.5 591.5 81.6 593.7 80.9C595.9 80.2 598.5 79.9 601.3 79.9C609.8 79.9 616.4 82.5 621 87.7C625.6 92.9 628 100 628 109.1V159.9H605.7V159.9Z" fill="#303030"/>
<path d="M211.7 57.2H188.2V80.7H211.7V57.2Z" fill="#823EB7"/>
<path d="M211.7 96.2V133.7C211.7 147.7 201.5 159.4 188.1 161.6C195.4 154.5 199.9 144.6 199.9 133.7H188.2V96.2H211.7Z" fill="#823EB7"/>
<path d="M46.7 103.6C39.2 103.6 33.3 105.9 29 110.4C24.7 114.9 22.5 122 22.5 131.6V161H0V81.5H22.5V97.5C24.8 92.1 27.9 87.7 31.8 84.4C35.8 81.1 41.1 79.7 47.8 80V103.6H46.7V103.6Z" fill="#303030"/>
<path d="M151.3 161.6H131L115.7 112.8L100.1 161.6H79.9L55.4 81.5H78.2L91 129.7L106 81.2H125.4L140.5 129.8L153.6 81.5H176L151.3 161.6Z" fill="#303030"/>
</svg>
